<svg width="95" height="32" viewBox="0 0 95 32" fill="none" xmlns="http://www.w3.org/2000/svg">
<path d="M40.4273 16.4103C40.4273 20.8521 36.9382 24.1251 32.6562 24.1251C28.3742 24.1251 24.885 20.8521 24.885 16.4103C24.885 11.9373 28.3742 8.69556 32.6562 8.69556C36.9382 8.69556 40.4273 11.9373 40.4273 16.4103ZM37.0255 16.4103C37.0255 13.6347 35.0032 11.7356 32.6562 11.7356C30.3091 11.7356 28.2869 13.6347 28.2869 16.4103C28.2869 19.1582 30.3091 21.0851 32.6562 21.0851C35.0032 21.0851 37.0255 19.1547 37.0255 16.4103Z" fill="#EA4335"/>
<path d="M57.192 16.4103C57.192 20.8521 53.7029 24.1251 49.4209 24.1251C45.1389 24.1251 41.6497 20.8521 41.6497 16.4103C41.6497 11.9408 45.1389 8.69556 49.4209 8.69556C53.7029 8.69556 57.192 11.9373 57.192 16.4103ZM53.7902 16.4103C53.7902 13.6347 51.7679 11.7356 49.4209 11.7356C47.0738 11.7356 45.0516 13.6347 45.0516 16.4103C45.0516 19.1582 47.0738 21.0851 49.4209 21.0851C51.7679 21.0851 53.7902 19.1547 53.7902 16.4103Z" fill="#FBBC05"/>
<path d="M73.2582 9.16164V23.0121C73.2582 28.7095 69.8843 31.0364 65.8957 31.0364C62.1411 31.0364 59.8814 28.5356 59.0292 26.4903L61.9909 25.2625C62.5183 26.5182 63.8106 27.9999 65.8922 27.9999C68.4453 27.9999 70.0275 26.4312 70.0275 23.4782V22.3686H69.9088C69.1474 23.3043 67.6805 24.1216 65.8294 24.1216C61.956 24.1216 58.4075 20.7616 58.4075 16.4382C58.4075 12.0834 61.956 8.69556 65.8294 8.69556C67.677 8.69556 69.1439 9.51295 69.9088 10.4208H70.0275V9.16512H73.2582V9.16164ZM70.2685 16.4382C70.2685 13.7216 68.4488 11.7356 66.1332 11.7356C63.7862 11.7356 61.8198 13.7216 61.8198 16.4382C61.8198 19.1269 63.7862 21.0851 66.1332 21.0851C68.4488 21.0851 70.2685 19.1269 70.2685 16.4382Z" fill="#4285F4"/>
<path d="M78.5845 1.04346V23.6522H75.2665V1.04346H78.5845Z" fill="#34A853"/>
<path d="M91.5144 18.9495L94.1549 20.7026C93.3027 21.9582 91.249 24.1217 87.7005 24.1217C83.2997 24.1217 80.0132 20.7339 80.0132 16.4069C80.0132 11.8191 83.3277 8.69214 87.3198 8.69214C91.3398 8.69214 93.3062 11.8782 93.9488 13.6L94.3016 14.4765L83.9459 18.7478C84.7387 20.2956 85.9716 21.0852 87.7005 21.0852C89.4328 21.0852 90.6343 20.2365 91.5144 18.9495ZM83.3871 16.1739L90.3095 13.3113C89.9288 12.3478 88.7832 11.6765 87.435 11.6765C85.7062 11.6765 83.2997 13.1965 83.3871 16.1739V16.1739Z" fill="#EA4335"/>
<path d="M12.3257 14.4036V11.1305H23.4009C23.5091 11.701 23.565 12.3757 23.565 13.1062C23.565 15.5618 22.8909 18.5984 20.7185 20.7618C18.6054 22.9531 15.9056 24.1218 12.3292 24.1218C5.70012 24.1218 0.125854 18.7444 0.125854 12.1427C0.125854 5.54097 5.70012 0.163574 12.3292 0.163574C15.9964 0.163574 18.6089 1.59662 20.5718 3.46444L18.2527 5.77401C16.8452 4.45923 14.9382 3.43662 12.3257 3.43662C7.48486 3.43662 3.69883 7.32183 3.69883 12.1427C3.69883 16.9636 7.48486 20.8488 12.3257 20.8488C15.4656 20.8488 17.2538 19.5931 18.3994 18.4523C19.3284 17.5271 19.9396 16.2053 20.1806 14.4001L12.3257 14.4036V14.4036Z" fill="#4285F4"/>
</svg>
