<svg width="17" height="13" viewBox="0 0 17 13" fill="none" xmlns="http://www.w3.org/2000/svg">
<g clip-path="url(#clip0)">
<path fill-rule="evenodd" clip-rule="evenodd" d="M8.05413 3.5383L8.08771 4.09194L7.52813 4.02415C5.49124 3.76428 3.71177 2.88298 2.20089 1.40285L1.46224 0.668432L1.27198 1.21077C0.869083 2.41973 1.12649 3.69648 1.96587 4.55518C2.41353 5.02973 2.31281 5.09752 1.54058 4.81505C1.27198 4.72466 1.03696 4.65687 1.01457 4.69077C0.936233 4.76986 1.20483 5.79804 1.41747 6.20479C1.70846 6.76973 2.30162 7.32336 2.95073 7.65103L3.49912 7.9109L2.85001 7.9222C2.22327 7.9222 2.20089 7.93349 2.26804 8.17077C2.49187 8.90518 3.37602 9.68479 4.36088 10.0238L5.05477 10.261L4.45042 10.6226C3.55508 11.1423 2.50307 11.4361 1.45105 11.4587C0.947425 11.47 0.533333 11.5152 0.533333 11.5491C0.533333 11.6621 1.89872 12.2948 2.69332 12.5434C5.07715 13.2778 7.90864 12.9614 10.0351 11.7073C11.5459 10.8147 13.0568 9.04077 13.7619 7.32336C14.1424 6.40817 14.5229 4.73596 14.5229 3.93376C14.5229 3.41402 14.5565 3.34622 15.1832 2.7248C15.5526 2.36324 15.8995 1.96778 15.9666 1.8548C16.0786 1.64012 16.0674 1.64012 15.4966 1.8322C14.5453 2.17116 14.411 2.12596 14.8811 1.61752C15.228 1.25596 15.6421 0.60064 15.6421 0.408562C15.6421 0.374666 15.4742 0.43116 15.284 0.532848C15.0825 0.645835 14.6348 0.815316 14.2991 0.917004L13.6947 1.10908L13.1463 0.736225C12.8442 0.532848 12.4189 0.306874 12.1951 0.239082C11.6243 0.0809003 10.7513 0.103498 10.2365 0.284277C8.83755 0.792718 7.95341 2.10337 8.05413 3.5383Z" fill="white"/>
</g>
<defs>
<clipPath id="clip0">
<rect width="15.489" height="12.8" fill="white" transform="translate(0.533333 0.133301)"/>
</clipPath>
</defs>
</svg>
