<svg width="18" height="13" viewBox="0 0 18 13" fill="none" xmlns="http://www.w3.org/2000/svg">
<g clip-path="url(#clip0)">
<path fill-rule="evenodd" clip-rule="evenodd" d="M15.2011 1.03272C15.9354 1.23423 16.5137 1.82798 16.71 2.58198C17.0667 3.94853 17.0667 6.79984 17.0667 6.79984C17.0667 6.79984 17.0667 9.65105 16.71 11.0177C16.5137 11.7717 15.9354 12.3654 15.2011 12.567C13.8703 12.9332 8.53333 12.9332 8.53333 12.9332C8.53333 12.9332 3.19641 12.9332 1.8655 12.567C1.13115 12.3654 0.552824 11.7717 0.356558 11.0177C0 9.65105 0 6.79984 0 6.79984C0 6.79984 0 3.94853 0.356558 2.58198C0.552824 1.82798 1.13115 1.23423 1.8655 1.03272C3.19641 0.666504 8.53333 0.666504 8.53333 0.666504C8.53333 0.666504 13.8703 0.666504 15.2011 1.03272ZM6.93335 4.39978V9.73311L11.2 7.06655L6.93335 4.39978Z" fill="white"/>
</g>
<defs>
<clipPath id="clip0">
<rect width="17.0667" height="12.2667" fill="white" transform="translate(0 0.666504)"/>
</clipPath>
</defs>
</svg>
