<svg width="116" height="28" viewBox="0 0 116 28" fill="none" xmlns="http://www.w3.org/2000/svg">
<path d="M0.57534 28.0001H10.0685C14.57 28.0001 18.2192 24.3509 18.2192 19.8494H8.72603C4.22453 19.8494 0.57534 23.4986 0.57534 28.0001Z" fill="#F22BB2"/>
<path d="M1 8.15069V20.137C5.5015 20.137 9.15069 16.4878 9.15069 11.9863V0C4.64919 0 1 3.64919 1 8.15069Z" fill="#8C30F5"/>
<path d="M27.4247 0H17.9315C13.43 0 9.78082 3.64919 9.78082 8.15068H19.274C23.7755 8.15068 27.4247 4.5015 27.4247 0Z" fill="#FE9A22"/>
<path d="M27.4247 19.3698V7.38354C22.9232 7.38354 19.274 11.0327 19.274 15.5342V27.5205C23.7755 27.5205 27.4247 23.8713 27.4247 19.3698Z" fill="#2EC5CE"/>
<path d="M54.542 10.2507H59.0868C59.0484 6.57848 56.1241 4.09517 51.5601 4.09517C47.0729 4.09517 43.8418 6.54013 43.8705 10.1932C43.8609 13.1751 45.9511 14.853 49.3453 15.6296L51.3972 16.109C53.5545 16.6076 54.5229 17.1925 54.542 18.2951C54.5229 19.4936 53.4011 20.3278 51.493 20.3278C49.3932 20.3278 48.0126 19.3498 47.9071 17.4609H43.3623C43.4199 22.0536 46.6127 24.2493 51.5506 24.2493C56.4405 24.2493 59.3361 22.0344 59.3552 18.3047C59.3361 15.1694 57.2171 13.2518 53.3435 12.3984L51.656 12.0149C49.8726 11.6314 48.7413 11.0369 48.7796 9.86719C48.7892 8.79332 49.7097 8.01669 51.5506 8.01669C53.4011 8.01669 54.4174 8.85085 54.542 10.2507ZM65.9039 24.2493C67.9557 24.2493 69.3748 23.4535 70.1802 21.9482H70.2952V24H74.7057V13.9901C74.7057 10.8739 71.9348 9.08097 68.1859 9.08097C64.226 9.08097 61.9824 11.0753 61.6084 13.7599L65.9327 13.9134C66.134 12.9737 66.9106 12.3984 68.1475 12.3984C69.2981 12.3984 70.0268 12.9545 70.0268 13.9421V13.9901C70.0268 14.8913 69.0488 15.0831 66.5367 15.3036C63.5548 15.5529 61.0619 16.6555 61.0619 19.9155C61.0619 22.8303 63.085 24.2493 65.9039 24.2493ZM67.3517 21.1811C66.2682 21.1811 65.5012 20.6634 65.5012 19.6854C65.5012 18.7362 66.2491 18.1609 67.5818 17.9595C68.4543 17.8349 69.5282 17.6431 70.0555 17.3651V18.7649C70.0555 20.2031 68.8474 21.1811 67.3517 21.1811ZM82.2611 4.36364H77.5726V24H82.2611V4.36364ZM92.1297 24.2781C95.9937 24.2781 98.5345 22.4084 99.0714 19.5128L94.7664 19.3881C94.402 20.3661 93.4432 20.8935 92.216 20.8935C90.4134 20.8935 89.3012 19.695 89.3012 17.8924V17.7678H99.1194V16.598C99.1194 11.7464 96.1662 9.08097 91.9858 9.08097C87.537 9.08097 84.6797 12.13 84.6797 16.6939C84.6797 21.4112 87.4986 24.2781 92.1297 24.2781ZM89.3012 15.0447C89.3683 13.5778 90.5285 12.4656 92.0817 12.4656C93.6254 12.4656 94.7376 13.5394 94.7568 15.0447H89.3012ZM114.372 13.7695C114.122 10.8548 111.735 9.08097 107.746 9.08097C103.758 9.08097 101.217 10.8164 101.236 13.7695C101.217 16.0323 102.665 17.4897 105.608 18.0362L108.178 18.5252C109.395 18.7649 109.951 19.1484 109.971 19.8004C109.951 20.5387 109.127 21.0277 107.928 21.0277C106.596 21.0277 105.694 20.4524 105.493 19.3786L100.862 19.4936C101.198 22.4084 103.7 24.2781 107.909 24.2781C111.85 24.2781 114.717 22.3125 114.736 19.2827C114.717 17.1349 113.298 15.8597 110.364 15.294L107.526 14.7571C106.279 14.5078 105.877 14.0668 105.886 13.5011C105.877 12.7532 106.749 12.293 107.833 12.293C109.069 12.293 109.932 12.9545 110.067 13.8846L114.372 13.7695Z" fill="#18191F"/>
</svg>
